<?xml version="1.0" standalone="no"?>
<!DOCTYPE svg PUBLIC "-//W3C//DTD SVG 20010904//EN"
 "http://www.w3.org/TR/2001/REC-SVG-20010904/DTD/svg10.dtd">
<svg version="1.0" xmlns="http://www.w3.org/2000/svg"
 width="508.000000pt" height="586.000000pt" viewBox="0 0 508.000000 586.000000"
 preserveAspectRatio="xMidYMid meet">
<metadata>
Created by potrace 1.16, written by Peter Selinger 2001-2019
</metadata>
<g transform="translate(0.000000,586.000000) scale(0.100000,-0.100000)"
fill="#000000" stroke="none">
<path d="M902 5616 c-10 -22 -8 -27 11 -41 17 -12 52 -15 162 -15 100 0 148
-4 167 -14 15 -8 39 -17 55 -20 45 -10 119 -80 146 -139 51 -107 50 -100 54
-808 l4 -666 -23 -15 c-13 -8 -48 -21 -78 -28 -30 -7 -64 -19 -75 -26 -11 -8
-27 -14 -36 -14 -9 0 -43 -14 -76 -30 -50 -25 -62 -36 -67 -61 -8 -40 -8 -83
0 -103 8 -20 52 -21 79 -2 11 7 38 19 60 26 22 7 44 16 50 21 5 5 17 9 26 9 9
0 45 9 80 20 132 42 465 45 591 4 180 -58 252 -92 357 -170 126 -93 223 -227
280 -384 21 -61 51 -216 51 -269 0 -54 -40 -293 -55 -331 -8 -19 -17 -51 -21
-70 -4 -19 -13 -45 -21 -57 -21 -32 -13 -67 15 -71 50 -7 192 117 251 219 21
37 44 84 51 105 7 22 16 44 20 49 20 26 52 193 52 273 1 160 -60 359 -151 493
-63 93 -201 220 -301 278 -30 18 -62 36 -70 41 -21 12 -146 60 -158 60 -5 0
-23 7 -38 15 -16 8 -37 15 -47 15 -9 0 -50 9 -90 20 -39 11 -88 22 -108 25
-27 4 -38 11 -43 28 -8 28 -7 1542 0 1562 5 13 60 15 433 15 413 0 474 -4 611
-34 140 -31 289 -105 393 -196 30 -26 123 -139 144 -174 29 -50 113 -228 113
-240 0 -7 10 -42 22 -77 19 -58 21 -85 22 -279 0 -137 -4 -230 -11 -255 -7
-22 -18 -65 -26 -95 -18 -69 -87 -215 -134 -283 -49 -72 -136 -160 -209 -213
-34 -24 -65 -44 -68 -44 -4 0 -27 -9 -52 -20 -26 -12 -84 -24 -141 -30 -164
-17 -209 -33 -187 -68 9 -13 31 -18 100 -23 111 -8 301 -59 365 -100 13 -8 35
-20 49 -27 108 -52 279 -214 367 -348 7 -11 23 -35 36 -54 43 -65 108 -210
135 -300 54 -180 66 -264 58 -425 -3 -71 -12 -156 -21 -188 -8 -32 -15 -68
-15 -80 0 -39 -71 -240 -101 -287 -5 -8 -17 -32 -26 -52 -9 -21 -20 -38 -25
-38 -4 0 -8 -6 -8 -13 0 -8 -28 -54 -62 -103 -73 -104 -213 -248 -312 -319
-38 -28 -82 -62 -98 -77 -35 -33 -32 -41 48 -128 64 -69 86 -74 163 -39 25 11
64 29 86 38 22 10 60 27 85 39 25 12 56 26 70 32 14 6 43 21 65 35 22 13 47
27 55 31 13 7 133 82 184 116 93 63 262 219 360 333 163 188 255 390 287 625
16 114 5 333 -21 421 -24 81 -60 178 -72 195 -4 6 -22 37 -39 68 -61 115 -203
277 -325 371 -93 71 -271 175 -300 175 -6 0 -17 7 -24 15 -7 8 -20 15 -29 15
-9 1 -34 9 -56 20 -22 11 -46 19 -52 20 -7 0 -39 9 -70 19 -32 11 -78 22 -103
26 -52 7 -141 34 -154 45 -8 8 53 30 80 30 15 0 179 69 214 90 8 5 33 18 55
29 22 11 49 26 59 33 70 46 155 106 181 128 49 41 158 152 185 188 14 19 35
46 46 60 26 32 114 200 114 217 0 7 8 27 17 46 15 28 17 60 16 189 -1 138 -4
163 -27 232 -70 209 -216 395 -403 517 -26 17 -53 35 -59 40 -15 13 -179 96
-229 116 -134 54 -301 98 -440 117 -63 8 -437 13 -1251 15 l-1161 4 -11 -25z"/>
<path d="M259 4790 c-28 -7 -33 -21 -16 -44 10 -14 35 -20 101 -27 99 -10 108
-14 155 -63 70 -73 65 30 71 -1436 l5 -1325 48 -95 c68 -132 85 -159 156 -250
78 -99 245 -260 270 -260 10 0 22 7 25 16 3 9 6 314 6 678 0 741 -8 663 76
752 23 23 62 66 87 94 59 65 82 66 122 2 16 -26 45 -68 65 -94 19 -26 51 -68
70 -93 19 -26 42 -57 50 -69 16 -25 73 -105 140 -196 22 -30 48 -66 58 -81 9
-14 64 -89 122 -168 58 -79 112 -153 120 -166 24 -37 88 -125 136 -190 24 -33
63 -87 86 -120 23 -33 75 -104 115 -158 40 -54 73 -101 73 -104 0 -3 11 -19
25 -37 39 -47 51 -63 121 -161 94 -132 91 -128 195 -259 145 -183 363 -389
514 -486 149 -96 250 -143 410 -188 130 -37 216 -47 395 -47 225 0 307 16 470
93 177 84 376 319 309 363 -10 7 -22 -1 -44 -28 -123 -156 -264 -223 -466
-223 -140 0 -350 52 -459 114 -25 14 -56 32 -70 38 -41 21 -141 89 -195 132
-108 89 -208 198 -431 471 -23 28 -57 75 -138 190 -20 28 -58 82 -85 120 -28
39 -71 99 -96 135 -25 36 -75 106 -110 155 -36 50 -85 119 -110 155 -25 36
-65 92 -90 125 -24 33 -69 96 -100 140 -30 44 -74 105 -96 135 -22 30 -47 66
-57 80 -9 14 -49 70 -89 125 -109 152 -114 158 -178 250 -33 47 -103 145 -155
218 -52 73 -112 158 -133 189 -21 31 -42 60 -47 63 -26 16 -9 61 43 115 138
146 238 262 234 273 -2 7 -15 13 -28 15 -21 2 -40 -14 -105 -84 -43 -48 -99
-109 -124 -135 -25 -26 -65 -69 -89 -96 -24 -26 -67 -73 -95 -103 -29 -30 -92
-100 -141 -155 -164 -184 -282 -305 -296 -305 -6 0 -8 346 -7 873 3 988 -1
933 83 1013 42 40 47 42 144 54 85 10 101 15 107 32 3 11 2 24 -3 29 -10 10
-1115 18 -1154 9z"/>
<path d="M2877 4792 l-498 -2 3 -27 c3 -26 7 -28 83 -40 71 -10 83 -15 107
-45 36 -43 37 -111 4 -200 -47 -124 -121 -231 -285 -408 -53 -57 -57 -66 -41
-90 13 -21 44 -1 115 78 130 144 398 368 536 448 10 6 27 17 36 25 10 9 29 21
43 27 14 7 67 35 119 62 51 28 97 50 103 50 5 0 28 9 51 19 23 10 94 25 157
33 114 13 115 14 118 41 3 27 3 27 -62 27 -35 0 -70 1 -78 3 -7 1 -237 1 -511
-1z"/>
<path d="M460 3034 c-6 -14 -10 -28 -10 -32 -1 -4 -9 -25 -20 -47 -11 -22 -19
-46 -20 -54 0 -8 -9 -39 -19 -70 -18 -53 -28 -103 -53 -261 -14 -86 -4 -327
17 -415 46 -192 55 -226 76 -270 10 -22 19 -45 19 -52 0 -15 87 -182 106 -204
8 -8 14 -19 14 -24 0 -10 46 -80 70 -106 8 -9 24 -29 35 -44 65 -90 377 -365
414 -365 5 0 14 -6 18 -12 9 -15 30 -27 169 -97 56 -28 107 -51 115 -51 8 0
28 -9 44 -20 17 -11 39 -20 50 -20 11 0 32 -6 47 -14 14 -8 50 -19 78 -25 28
-6 60 -16 71 -21 10 -6 51 -17 91 -25 40 -8 96 -18 123 -24 47 -9 119 -20 290
-41 145 -19 518 -5 566 20 27 15 23 42 -11 75 l-30 29 -113 -19 c-150 -25
-460 -26 -597 -2 -52 9 -122 21 -155 26 -69 11 -131 26 -195 47 -25 9 -63 20
-85 26 -22 6 -58 19 -81 29 -22 11 -44 19 -49 19 -9 0 -67 26 -150 68 -109 54
-150 80 -216 134 -26 21 -50 38 -53 38 -18 0 -208 189 -281 280 -67 85 -76 97
-107 158 -12 23 -26 42 -30 42 -4 0 -8 5 -8 11 0 5 -12 36 -26 67 -14 31 -32
71 -39 87 -40 88 -80 256 -96 395 -13 113 -4 349 16 417 7 26 16 67 20 91 4
24 16 68 26 97 30 86 23 185 -13 185 -5 0 -13 -12 -18 -26z"/>
<path d="M576 1414 c-3 -9 -6 -156 -6 -329 0 -311 0 -313 -25 -366 -46 -102
-97 -134 -225 -145 -57 -5 -83 -11 -87 -22 -3 -7 0 -18 8 -23 8 -5 273 -9 590
-9 507 0 578 2 589 15 21 25 1 34 -90 41 -176 13 -237 88 -247 304 -5 138 -6
141 -50 170 -21 14 -45 30 -53 37 -8 7 -42 34 -75 60 -100 80 -168 144 -244
232 -45 52 -74 64 -85 35z"/>
</g>
</svg>
